<svg width="2732" height="2732" viewBox="0 0 2732 2732" fill="none" xmlns="http://www.w3.org/2000/svg">
<path d="M1366 0L1411.04 506.599L1508.79 7.48303L1500.62 516.015L1650.01 29.8503L1588.73 534.744L1788.12 66.8568L1674.4 562.579L1921.6 118.097L1756.7 599.218L2049 183.009L1834.71 644.257L2168.91 260.883L1907.58 697.204L2280.03 350.864L1974.52 757.478L2381.14 451.968L2034.8 824.419L2471.12 563.085L2087.74 897.295L2548.99 683L2132.78 975.305L2613.9 810.398L2169.42 1057.6L2665.14 943.883L2197.26 1143.27L2702.15 1081.99L2215.98 1231.38L2724.52 1223.21L2225.4 1320.96L2732 1366L2225.4 1411.04L2724.52 1508.79L2215.98 1500.62L2702.15 1650.01L2197.26 1588.73L2665.14 1788.12L2169.42 1674.4L2613.9 1921.6L2132.78 1756.7L2548.99 2049L2087.74 1834.71L2471.12 2168.91L2034.8 1907.58L2381.14 2280.03L1974.52 1974.52L2280.03 2381.14L1907.58 2034.8L2168.91 2471.12L1834.71 2087.74L2049 2548.99L1756.7 2132.78L1921.6 2613.9L1674.4 2169.42L1788.12 2665.14L1588.73 2197.26L1650.01 2702.15L1500.62 2215.98L1508.79 2724.52L1411.04 2225.4L1366 2732L1320.96 2225.4L1223.21 2724.52L1231.38 2215.98L1081.99 2702.15L1143.27 2197.26L943.883 2665.14L1057.6 2169.42L810.398 2613.9L975.305 2132.78L683 2548.99L897.295 2087.74L563.085 2471.12L824.419 2034.8L451.968 2381.14L757.478 1974.52L350.864 2280.03L697.204 1907.58L260.883 2168.91L644.257 1834.71L183.009 2049L599.218 1756.7L118.097 1921.6L562.579 1674.4L66.8568 1788.12L534.744 1588.73L29.8503 1650.01L516.015 1500.62L7.48303 1508.79L506.599 1411.04L0 1366L506.599 1320.96L7.48303 1223.21L516.015 1231.38L29.8503 1081.99L534.744 1143.27L66.8568 943.883L562.579 1057.6L118.097 810.398L599.218 975.305L183.009 683L644.257 897.295L260.883 563.085L697.204 824.419L350.864 451.968L757.478 757.478L451.968 350.864L824.419 697.204L563.085 260.883L897.295 644.257L683 183.009L975.305 599.218L810.398 118.097L1057.6 562.579L943.883 66.8568L1143.27 534.744L1081.99 29.8503L1231.38 516.015L1223.21 7.48303L1320.96 506.599L1366 0Z" fill="#4C4646"/>
</svg>
